<mxfile host="app.diagrams.net" modified="2023-08-18T19:57:59.897Z" agent="Mozilla/5.0 (Macintosh; Intel Mac OS X 10_13_5) AppleWebKit/605.1.15 (KHTML, like Gecko) CriOS/115 Version/11.1.1 Safari/605.1.15" etag="3KMG5AbRsqQOk7TC2Mj-" version="21.6.8" type="github">
  <diagram name="PÃ¡gina-1" id="IMxcLizBP58y3lWf2TRU">
    <mxGraphModel dx="495" dy="477" grid="0" gridSize="10" guides="1" tooltips="1" connect="1" arrows="1" fold="1" page="0" pageScale="1" pageWidth="827" pageHeight="1169" math="0" shadow="0">
      <root>
        <mxCell id="0" />
        <mxCell id="1" parent="0" />
        <mxCell id="YCbq8y8z7RBJt5d50cJ--2" value="Loop" style="swimlane;whiteSpace=wrap;html=1;fontSize=16;" vertex="1" parent="1">
          <mxGeometry x="254" y="308" width="204" height="282" as="geometry">
            <mxRectangle x="254" y="308" width="74" height="31" as="alternateBounds" />
          </mxGeometry>
        </mxCell>
        <mxCell id="YCbq8y8z7RBJt5d50cJ--3" value="var" style="rounded=0;whiteSpace=wrap;html=1;fontSize=16;fillColor=#ffe6cc;strokeColor=#d79b00;" vertex="1" parent="YCbq8y8z7RBJt5d50cJ--2">
          <mxGeometry x="9" y="32" width="71" height="37" as="geometry" />
        </mxCell>
        <mxCell id="YCbq8y8z7RBJt5d50cJ--4" value="set." style="rounded=0;whiteSpace=wrap;html=1;fontSize=16;fillColor=#f5f5f5;fontColor=#333333;strokeColor=#666666;" vertex="1" parent="YCbq8y8z7RBJt5d50cJ--2">
          <mxGeometry x="108" y="32" width="89" height="37.5" as="geometry" />
        </mxCell>
        <mxCell id="YCbq8y8z7RBJt5d50cJ--5" value="" style="endArrow=none;html=1;rounded=0;fontSize=12;startSize=8;endSize=8;curved=1;entryX=0;entryY=0.5;entryDx=0;entryDy=0;exitX=1;exitY=0.5;exitDx=0;exitDy=0;" edge="1" parent="YCbq8y8z7RBJt5d50cJ--2" source="YCbq8y8z7RBJt5d50cJ--3" target="YCbq8y8z7RBJt5d50cJ--4">
          <mxGeometry width="50" height="50" relative="1" as="geometry">
            <mxPoint x="65" y="151" as="sourcePoint" />
            <mxPoint x="123" y="66" as="targetPoint" />
          </mxGeometry>
        </mxCell>
        <mxCell id="YCbq8y8z7RBJt5d50cJ--7" value="List" style="swimlane;fontStyle=0;childLayout=stackLayout;horizontal=1;startSize=30;horizontalStack=0;resizeParent=1;resizeParentMax=0;resizeLast=0;collapsible=1;marginBottom=0;whiteSpace=wrap;html=1;fontSize=16;" vertex="1" parent="YCbq8y8z7RBJt5d50cJ--2">
          <mxGeometry x="23.5" y="143" width="157" height="120" as="geometry">
            <mxRectangle x="64" y="141" width="60" height="31" as="alternateBounds" />
          </mxGeometry>
        </mxCell>
        <mxCell id="YCbq8y8z7RBJt5d50cJ--8" value="Red" style="text;strokeColor=none;fillColor=none;align=left;verticalAlign=middle;spacingLeft=4;spacingRight=4;overflow=hidden;points=[[0,0.5],[1,0.5]];portConstraint=eastwest;rotatable=0;whiteSpace=wrap;html=1;fontSize=16;" vertex="1" parent="YCbq8y8z7RBJt5d50cJ--7">
          <mxGeometry y="30" width="157" height="30" as="geometry" />
        </mxCell>
        <mxCell id="YCbq8y8z7RBJt5d50cJ--9" value="Blue&amp;nbsp;" style="text;strokeColor=none;fillColor=none;align=left;verticalAlign=middle;spacingLeft=4;spacingRight=4;overflow=hidden;points=[[0,0.5],[1,0.5]];portConstraint=eastwest;rotatable=0;whiteSpace=wrap;html=1;fontSize=16;" vertex="1" parent="YCbq8y8z7RBJt5d50cJ--7">
          <mxGeometry y="60" width="157" height="30" as="geometry" />
        </mxCell>
        <mxCell id="YCbq8y8z7RBJt5d50cJ--10" value="Green&amp;nbsp;" style="text;strokeColor=none;fillColor=none;align=left;verticalAlign=middle;spacingLeft=4;spacingRight=4;overflow=hidden;points=[[0,0.5],[1,0.5]];portConstraint=eastwest;rotatable=0;whiteSpace=wrap;html=1;fontSize=16;" vertex="1" parent="YCbq8y8z7RBJt5d50cJ--7">
          <mxGeometry y="90" width="157" height="30" as="geometry" />
        </mxCell>
        <mxCell id="YCbq8y8z7RBJt5d50cJ--11" value="" style="endArrow=none;html=1;rounded=0;fontSize=12;startSize=8;endSize=8;curved=1;entryX=0.5;entryY=1;entryDx=0;entryDy=0;exitX=0.5;exitY=0;exitDx=0;exitDy=0;" edge="1" parent="YCbq8y8z7RBJt5d50cJ--2" source="YCbq8y8z7RBJt5d50cJ--7" target="YCbq8y8z7RBJt5d50cJ--4">
          <mxGeometry width="50" height="50" relative="1" as="geometry">
            <mxPoint x="121" y="119.5" as="sourcePoint" />
            <mxPoint x="171" y="69.5" as="targetPoint" />
          </mxGeometry>
        </mxCell>
        <mxCell id="YCbq8y8z7RBJt5d50cJ--12" value="Start" style="rounded=0;whiteSpace=wrap;html=1;fontSize=16;fillColor=#e51400;fontColor=#ffffff;strokeColor=#B20000;" vertex="1" parent="1">
          <mxGeometry x="296" y="182" width="120" height="60" as="geometry" />
        </mxCell>
        <mxCell id="YCbq8y8z7RBJt5d50cJ--14" value="" style="endArrow=classic;html=1;rounded=0;fontSize=12;startSize=8;endSize=8;curved=1;entryX=0.5;entryY=1;entryDx=0;entryDy=0;exitX=0.5;exitY=0;exitDx=0;exitDy=0;" edge="1" parent="1" source="YCbq8y8z7RBJt5d50cJ--2" target="YCbq8y8z7RBJt5d50cJ--12">
          <mxGeometry width="50" height="50" relative="1" as="geometry">
            <mxPoint x="335" y="407" as="sourcePoint" />
            <mxPoint x="385" y="357" as="targetPoint" />
          </mxGeometry>
        </mxCell>
      </root>
    </mxGraphModel>
  </diagram>
</mxfile>
